    <svg width="155" height="82" viewBox="0 0 155 82" fill="none" xmlns="http://www.w3.org/2000/svg">
        <path d="M2.7983 68.5V33.5909H11.2358V47.6023H24.9915V33.5909H33.4119V68.5H24.9915V54.4716H11.2358V68.5H2.7983ZM46.0852 68.9432C44.4148 68.9432 42.9318 68.6648 41.6364 68.108C40.3523 67.5398 39.3352 66.6875 38.5852 65.5511C37.8466 64.4034 37.4773 62.9659 37.4773 61.2386C37.4773 59.7841 37.733 58.5568 38.2443 57.5568C38.7557 56.5568 39.4602 55.7443 40.358 55.1193C41.2557 54.4943 42.2898 54.0227 43.4602 53.7045C44.6307 53.375 45.8807 53.1534 47.2102 53.0398C48.6989 52.9034 49.8977 52.7614 50.8068 52.6136C51.7159 52.4545 52.375 52.233 52.7841 51.9489C53.2045 51.6534 53.4148 51.2386 53.4148 50.7045V50.6193C53.4148 49.7443 53.1136 49.0682 52.5114 48.5909C51.9091 48.1136 51.0966 47.875 50.0739 47.875C48.9716 47.875 48.0852 48.1136 47.4148 48.5909C46.7443 49.0682 46.3182 49.7273 46.1364 50.5682L38.4489 50.2955C38.6761 48.7045 39.2614 47.2841 40.2045 46.0341C41.1591 44.7727 42.4659 43.7841 44.125 43.0682C45.7955 42.3409 47.8011 41.9773 50.142 41.9773C51.8125 41.9773 53.3523 42.1761 54.7614 42.5739C56.1705 42.9602 57.3977 43.5284 58.4432 44.2784C59.4886 45.017 60.2955 45.9261 60.8636 47.0057C61.4432 48.0852 61.733 49.3182 61.733 50.7045V68.5H53.892V64.8523H53.6875C53.2216 65.7386 52.625 66.4886 51.8977 67.1023C51.1818 67.7159 50.3352 68.1761 49.358 68.483C48.392 68.7898 47.3011 68.9432 46.0852 68.9432ZM48.6591 63.4886C49.5568 63.4886 50.3636 63.3068 51.0795 62.9432C51.8068 62.5795 52.3864 62.0795 52.8182 61.4432C53.25 60.7955 53.4659 60.0455 53.4659 59.1932V56.7045C53.2273 56.8295 52.9375 56.9432 52.5966 57.0455C52.267 57.1477 51.9034 57.2443 51.5057 57.3352C51.108 57.4261 50.6989 57.5057 50.2784 57.5739C49.858 57.642 49.4545 57.7045 49.0682 57.7614C48.2841 57.8864 47.6136 58.0795 47.0568 58.3409C46.5114 58.6023 46.0909 58.9432 45.7955 59.3636C45.5114 59.7727 45.3693 60.2614 45.3693 60.8295C45.3693 61.6932 45.6761 62.3523 46.2898 62.8068C46.9148 63.2614 47.7045 63.4886 48.6591 63.4886ZM66.8295 68.5V33.5909H75.1648V46.8011H75.3352C75.6761 46.0057 76.1591 45.2386 76.7841 44.5C77.4205 43.7614 78.2273 43.1591 79.2045 42.6932C80.1932 42.2159 81.375 41.9773 82.75 41.9773C84.5682 41.9773 86.267 42.4545 87.8466 43.4091C89.4375 44.3636 90.7216 45.8352 91.6989 47.8239C92.6761 49.8125 93.1648 52.3466 93.1648 55.4261C93.1648 58.392 92.6932 60.875 91.75 62.875C90.8182 64.875 89.5568 66.375 87.9659 67.375C86.3864 68.375 84.6307 68.875 82.6989 68.875C81.3807 68.875 80.2386 68.6591 79.2727 68.2273C78.3068 67.7955 77.4943 67.2273 76.8352 66.5227C76.1875 65.8182 75.6875 65.0625 75.3352 64.2557H75.0795V68.5H66.8295ZM74.9943 55.4091C74.9943 56.8182 75.1818 58.0455 75.5568 59.0909C75.9432 60.1364 76.4943 60.9489 77.2102 61.5284C77.9375 62.0966 78.8068 62.3807 79.8182 62.3807C80.8409 62.3807 81.7102 62.0966 82.4261 61.5284C83.142 60.9489 83.6818 60.1364 84.0455 59.0909C84.4205 58.0455 84.608 56.8182 84.608 55.4091C84.608 54 84.4205 52.7784 84.0455 51.7443C83.6818 50.7102 83.142 49.9091 82.4261 49.3409C81.7216 48.7727 80.8523 48.4886 79.8182 48.4886C78.7955 48.4886 77.9261 48.767 77.2102 49.3239C76.4943 49.8807 75.9432 50.6761 75.5568 51.7102C75.1818 52.7443 74.9943 53.9773 74.9943 55.4091ZM97.5327 68.5V42.3182H105.868V68.5H97.5327ZM101.709 39.267C100.538 39.267 99.5327 38.8807 98.6918 38.108C97.8509 37.3239 97.4304 36.3807 97.4304 35.2784C97.4304 34.1875 97.8509 33.2557 98.6918 32.483C99.5327 31.6989 100.538 31.3068 101.709 31.3068C102.891 31.3068 103.896 31.6989 104.726 32.483C105.567 33.2557 105.987 34.1875 105.987 35.2784C105.987 36.3807 105.567 37.3239 104.726 38.108C103.896 38.8807 102.891 39.267 101.709 39.267ZM125.952 42.3182V48.4545H109.435V42.3182H125.952ZM112.895 36.0455H121.23V60.267C121.23 60.7784 121.31 61.1932 121.469 61.5114C121.639 61.8182 121.884 62.0398 122.202 62.1761C122.52 62.3011 122.901 62.3636 123.344 62.3636C123.662 62.3636 123.997 62.3352 124.349 62.2784C124.713 62.2102 124.986 62.1534 125.168 62.108L126.429 68.125C126.031 68.2386 125.469 68.3807 124.741 68.5511C124.026 68.7216 123.168 68.8295 122.168 68.875C120.213 68.9659 118.537 68.7386 117.139 68.1932C115.753 67.6364 114.69 66.7727 113.952 65.6023C113.224 64.4318 112.872 62.9602 112.895 61.1875V36.0455ZM152.734 50.3125L145.081 50.517C145.001 49.9716 144.786 49.4886 144.433 49.0682C144.081 48.6364 143.621 48.3011 143.053 48.0625C142.496 47.8125 141.848 47.6875 141.109 47.6875C140.143 47.6875 139.32 47.8807 138.638 48.267C137.967 48.6534 137.638 49.1761 137.649 49.8352C137.638 50.3466 137.842 50.7898 138.263 51.1648C138.695 51.5398 139.462 51.8409 140.564 52.0682L145.609 53.0227C148.223 53.5227 150.166 54.3523 151.439 55.5114C152.723 56.6705 153.371 58.2045 153.382 60.1136C153.371 61.9091 152.837 63.4716 151.78 64.8011C150.734 66.1307 149.303 67.1648 147.484 67.9034C145.666 68.6307 143.587 68.9943 141.246 68.9943C137.507 68.9943 134.558 68.2273 132.399 66.6932C130.251 65.1477 129.024 63.0795 128.717 60.4886L136.95 60.2841C137.132 61.2386 137.604 61.9659 138.365 62.4659C139.126 62.9659 140.098 63.2159 141.28 63.2159C142.348 63.2159 143.217 63.017 143.888 62.6193C144.558 62.2216 144.899 61.6932 144.911 61.0341C144.899 60.4432 144.638 59.9716 144.126 59.6193C143.615 59.2557 142.814 58.9716 141.723 58.767L137.155 57.8977C134.53 57.4205 132.575 56.5398 131.291 55.2557C130.007 53.9602 129.371 52.3125 129.382 50.3125C129.371 48.5625 129.837 47.0682 130.78 45.8295C131.723 44.5795 133.064 43.625 134.803 42.9659C136.541 42.3068 138.592 41.9773 140.956 41.9773C144.501 41.9773 147.297 42.7216 149.342 44.2102C151.388 45.6875 152.518 47.7216 152.734 50.3125Z" fill="#F0FDF4"/>
        <rect x="0.5" y="1" width="15" height="15" rx="3.5" fill="#18181B" stroke="#27272A"/>
        <rect x="20.5" y="1" width="15" height="15" rx="3.5" fill="#134E4A" stroke="#0F766E"/>
        <rect x="40.5" y="1" width="15" height="15" rx="3.5" fill="#115E59" stroke="#0D9488"/>
        <rect x="60.5" y="1" width="15" height="15" rx="3.5" fill="#0F766E" stroke="#14B8A6"/>
        <rect x="80.5" y="1" width="15" height="15" rx="3.5" fill="#0D9488" stroke="#2DD4BF"/>
        <rect x="100.5" y="1" width="15" height="15" rx="3.5" fill="#14B8A6" stroke="#5EEAD4"/>
        </svg>